<?xml version="1.0" encoding="utf-8"?>
<!-- Generator: Adobe Illustrator 19.2.1, SVG Export Plug-In . SVG Version: 6.00 Build 0)  -->
<svg version="1.1" xmlns="http://www.w3.org/2000/svg" xmlns:xlink="http://www.w3.org/1999/xlink" x="0px" y="0px"
	 viewBox="0 0 400 200" style="enable-background:new 0 0 400 200;" xml:space="preserve">
<style type="text/css">
	.st0{fill:none;}
	.st1{fill:#4A4A4A;}
	.st2{font-family:'CoHeadlineCorp-Regular';}
	.st3{font-size:66.172px;}
	.st4{fill:#6DBD00;}
	.st5{fill:#F1E62E;}
	.st6{fill:#D05000;}
</style>
<g id="Слой_2">
	<rect x="152" y="81.2" class="st0" width="192.5" height="55.8"/>
	<text transform="matrix(1 0 0 1 151.9653 129.9297)" class="st1 st2 st3">NFVM</text>
</g>
<g id="Слой_1">
	<g>
		<path class="st1" d="M61,64.6v44.4c4.5-5.8,10.3-10.4,16.5-14.4V64.6c4.9-2.9,8.3-8.1,8.3-14.3c0-9.1-7.4-16.5-16.5-16.5
			s-16.5,7.4-16.5,16.5C52.7,56.5,56.1,61.8,61,64.6z M69.2,42.1c4.6,0,8.3,3.7,8.3,8.3s-3.7,8.3-8.3,8.3c-4.6,0-8.3-3.7-8.3-8.3
			S64.7,42.1,69.2,42.1z"/>
		<path class="st1" d="M135.4,33.8c-9.1,0-16.5,7.4-16.5,16.5c0,6.1,3.3,11.4,8.3,14.3v2.3c0,10.7-10.8,16.8-28.5,25.7
			C81,101.4,61,111.4,61,133.1v2.3c-4.9,2.9-8.3,8.1-8.3,14.3c0,9.1,7.4,16.5,16.5,16.5s16.5-7.4,16.5-16.5c0-6.1-3.3-11.4-8.3-14.3
			v-2.3c0-10.7,10.8-16.8,28.5-25.7c17.7-8.8,37.7-18.8,37.7-40.5v-2.3c4.9-2.9,8.3-8.1,8.3-14.3C152,41.2,144.6,33.8,135.4,33.8z
			 M69.2,157.9c-4.6,0-8.3-3.7-8.3-8.3c0-4.6,3.7-8.3,8.3-8.3c4.6,0,8.3,3.7,8.3,8.3C77.5,154.2,73.8,157.9,69.2,157.9z M135.4,58.6
			c-4.6,0-8.3-3.7-8.3-8.3s3.7-8.3,8.3-8.3c4.6,0,8.3,3.7,8.3,8.3S140,58.6,135.4,58.6z"/>
		<circle class="st4" cx="69.2" cy="50.4" r="9"/>
		<circle class="st5" cx="135.4" cy="50.4" r="9"/>
		<circle class="st6" cx="69.2" cy="149.6" r="9"/>
	</g>
</g>
</svg>
